# xmcd
#
# Track frame offsets: 
#        150
#        11510
#        21507
#        34248
#        62609
#        73675
#        91871
#        100088
#        120997
#        127381
#        145254
#        160295
#        182360
#        199095
#
# Disc length: 2799 seconds
#
# Revision: 0
# Processed by: cddbd v1.5.2PL0 Copyright (c) Steve Scherf et al.
# Submitted via: ExactAudioCopy v0.99pb5
#
DISCID=be0aed0e
DTITLE=Fanfara e Coro della Brigata Alpina Julia - Alpini Musiche e Co
DTITLE=ri, 77ma ANA, Trieste 14-16 maggio 2004
DYEAR=2004
DGENRE=Vocal
TTITLE0=Le campane di S.Giusto
TTITLE1=Trentatrè - Inno degli Alpini
TTITLE2=Principe Eugenio
TTITLE3=Aida - Marcia Trionfale
TTITLE4=Il silenzio
TTITLE5=4 maggio - Marcia Militare
TTITLE6=Inno Nazionale
TTITLE7=Stelutis alpinis
TTITLE8=Sul cappello
TTITLE9=Il testamento del Capitano
TTITLE10=Sul ponte di Perati
TTITLE11=L'ultima notte
TTITLE12=La montanara
TTITLE13=Quel mazzolin di fiori
EXTD=
EXTT0=
EXTT1=
EXTT2=
EXTT3=
EXTT4=
EXTT5=
EXTT6=
EXTT7=
EXTT8=
EXTT9=
EXTT10=
EXTT11=
EXTT12=
EXTT13=
PLAYORDER=
